# AST/ASF file generated using VICON BodyLanguage
# -----------------------------------------------
:version 1.10
:name VICON
:units
  mass 1.0
  length 0.45
  angle deg
:documentation
   .ast/.asf automatically generated from VICON data using
   VICON BodyBuilder and BodyLanguage model FoxedUp or BRILLIANT.MOD
:root
   order TX TY TZ RX RY RZ
   axis XYZ
   position 0 0 0  
   orientation 0 0 0 
:bonedata
  begin
     id 1 
     name lhipjoint
     direction 0.566809 -0.746272 0.349008 
     length 2.40479 
     axis 0 0 0  XYZ
  end
  begin
     id 2 
     name lfemur
     direction 0.34202 -0.939693 0  
     length 7.1578  
     axis 0 0 20  XYZ
    dof rx ry rz
    limits (-160.0 20.0)
           (-70.0 70.0)
           (-60.0 70.0)
  end
  begin
     id 3 
     name ltibia
     direction 0.34202 -0.939693 0   
     length 7.49137   
     axis 0 0 20   XYZ
    dof rx
    limits (-10.0 170.0)
  end
  begin
     id 4 
     name lfoot
     direction 0.0665746 -0.182912 0.980873   
     length 2.36784   
     axis -90 7.62852e-016 20   XYZ
    dof rx rz
    limits (-45.0 90.0)
           (-70.0 20.0)
  end
  begin
     id 5 
     name ltoes
     direction 1.53601e-011 -4.22058e-011 1   
     length 1.18966   
     axis -90 7.62852e-016 20   XYZ
    dof rx
    limits (-90.0 20.0)
  end
  begin
     id 6 
     name rhipjoint
     direction -0.550236 -0.756381 0.353735   
     length 2.37265  
     axis 0 0 0  XYZ 
  end
  begin
     id 7 
     name rfemur
     direction -0.34202 -0.939693 0   
     length 7.43386   
     axis 0 0 -20   XYZ
    dof rx ry rz
    limits (-160.0 20.0)
           (-70.0 70.0)
           (-70.0 60.0)
  end
  begin
     id 8 
     name rtibia
     direction -0.34202 -0.939693 0   
     length 7.50908   
     axis 0 0 -20   XYZ
    dof rx
    limits (-10.0 170.0)
 end
 begin
     id 9 
     name rfoot
     direction -0.0683029 -0.187661 0.979856   
     length 2.41173  
     axis -90 -7.62852e-016 -20   XYZ
    dof rx rz
    limits (-45.0 90.0)
           (-20.0 70.0)
  end
  begin
     id 10 
     name rtoes
     direction -1.53528e-011 -4.21968e-011 1   
     length 1.21082   
     axis -90 -7.62852e-016 -20   XYZ
    dof rx
    limits (-90.0 20.0)
  end
  begin
     id 11 
     name lowerback
     direction 0.013823 0.995423 -0.0945635   
     length 2.04495   
     axis 0 0 0   XYZ
    dof rx ry rz
    limits (-20.0 45.0)
           (-30.0 30.0)
           (-30.0 30.0)
  end
  begin
     id 12 
     name upperback
     direction 0.0276657 0.9994 -0.020853   
     length 2.05008   
     axis 0 0 0   XYZ
    dof rx ry rz
    limits (-20.0 45.0)
           (-30.0 30.0)
           (-30.0 30.0)
  end
  begin
     id 13 
     name thorax
     direction 0.019782 0.999531 0.0233827   
     length 2.06488   
     axis 0 0 0   XYZ
    dof rx ry rz
    limits (-20.0 45.0)
           (-30.0 30.0)
           (-30.0 30.0)
  end
  begin
     id 14 
     name lowerneck
     direction -0.0308541 0.994709 0.0979874   
     length 1.75553   
     axis 0 0 0   XYZ
    dof rx ry rz
    limits (-20.0 45.0)
           (-30.0 30.0)
           (-30.0 30.0)
  end
  begin
     id 15 
     name upperneck
     direction 0.0588398 0.995804 -0.0700903   
     length 1.76878   
     axis 0 0 0   XYZ
    dof rx ry rz
    limits (-20.0 45.0)
           (-30.0 30.0)
           (-30.0 30.0)
  end
  begin
     id 16
     name head
     direction 0.0209966 0.999159 -0.0352225  
     length 1.77193  
     axis 0 0 0   XYZ
    dof rx ry rz
    limits (-20.0 45.0)
           (-30.0 30.0)
           (-30.0 30.0)
  end
  begin
     id 17 
     name lclavicle
     direction 0.938182 0.335073 -0.0868338  
     length 3.58396  
     axis 0 0 0   XYZ
    dof ry rz
    limits (-20.0 10.0)
           (0.0 20.0)
  end
  begin
     id 18 
     name lhumerus
     direction 1 -4.48971e-011 -1.26313e-017   
     length 4.983   
     axis 180 -30 -90   XYZ
    dof rx ry rz
    limits (-60.0 90.0)
           (-90.0 90.0)
           (-90.0 90.0)
  end
  begin
     id 19
     name lradius
     direction 1 -4.48948e-011 -5.89033e-027   
     length 3.48356   
     axis 180 -30 -90   XYZ
    dof rx
    limits (-10.0 170.0)
  end
  begin
     id 20
     name lwrist
     direction 1 -4.48977e-011 -1.48983e-026   
     length 1.74178   
     axis 9.0955e-015 90 90   XYZ
    dof ry
    limits (-180.0 0.0)
 end
  begin
     id 21 
     name lhand
     direction 1 -4.49046e-011 -2.98066e-026   
     length 0.715259   
     axis 1.90115e-014 90 90   XYZ
    dof rx rz
    limits (-90.0 90.0)
           (-45.0 45.0)
  end
  begin
     id 22 
     name lfingers
     direction 1 -4.48907e-011 -5.95731e-026   
     length 0.576661   
     axis 3.80223e-014 90 90   XYZ
    dof rx
    limits (0.0 90.0)
  end
  begin
     id 23
     name lthumb
     direction 0.707107 -6.34963e-011 0.707107   
     length 0.827973   
     axis -90 45 -3.84942e-014   XYZ
    dof rx rz
    limits (-45.0 45.0)
           (-45.0 45.0)
  end
  begin
     id 24 
     name rclavicle
     direction -0.909637 0.398485 -0.11735   
     length 3.44819  
     axis 0 0 0   XYZ 
    dof ry rz
    limits (-10.0 20.0)
           (-20.0 0.0)
  end
  begin
     id 25 
     name rhumerus
     direction -1 -4.48978e-011 -1.09333e-027  
     length 5.2419   
     axis 180 30 90   XYZ
    dof rx ry rz
    limits (-90.0 60.0)
           (-90.0 90.0)
           (-90.0 90.0)
  end
  begin
     id 26 
     name rradius
     direction -1 -4.48953e-011 -7.61841e-027   
     length 3.44417   
     axis 180 30 90   XYZ
    dof rx
    limits (-10.0 170.0)
  end
  begin
     id 27 
     name rwrist
     direction -1 -4.48977e-011 -1.48983e-026   
     length 1.72209   
     axis 9.0955e-015 -90 -90   XYZ
    dof ry
    limits (-180.0 0.0)
  end
  begin
     id 28
     name rhand
     direction -1 -4.49027e-011 -2.98038e-026   
     length 0.622529   
     axis 1.90115e-014 -90 -90   XYZ
    dof rx rz
    limits (-90.0 90.0)
           (-45.0 45.0)
  end
  begin
     id 29
     name rfingers
     direction -1 -4.48838e-011 -5.95531e-026   
     length 0.501899   
     axis 3.80223e-014 -90 -90   XYZ
    dof rx
    limits (0.0 90.0)
  end
  begin
     id 30
     name rthumb
     direction -0.707107 -6.34937e-011 0.707107   
     length 0.720629   
     axis -90 -45 3.84942e-014   XYZ
    dof rx rz
    limits (-45.0 45.0)
           (-45.0 45.0)
  end
:hierarchy
  begin
    root lhipjoint rhipjoint lowerback
    lhipjoint lfemur
    lfemur ltibia
    ltibia lfoot
    lfoot ltoes
    rhipjoint rfemur
    rfemur rtibia
    rtibia rfoot
    rfoot rtoes
    lowerback upperback
    upperback thorax
    thorax lowerneck lclavicle rclavicle
    lowerneck upperneck
    upperneck head
    lclavicle lhumerus
    lhumerus lradius
    lradius lwrist
    lwrist lhand lthumb
    lhand lfingers
    rclavicle rhumerus
    rhumerus rradius
    rradius rwrist
    rwrist rhand rthumb
    rhand rfingers
  end

#!OML:ASF H:\Terrain\Patient Classification 1\PLAYGROUND\JustinFriday\JustinFriday.ASF
:FULLY-SPECIFIED
:DEGREES
34
root 7.71638 17.6504 13.4913 60.7022 -84.324 -52.7941
lowerback 11.5368 -1.36353 -2.10905
upperback 4.20159 -2.13327 2.21138
thorax -1.91092 -1.15894 3.76659
lowerneck -2.4158 -8.10343 -8.84057
upperneck 5.97648 -10.7066 4.25285
head 3.16833 -5.40975 2.51371
rclavicle -2.15681e-014 -1.39149e-014
rhumerus -31.1925 -12.9307 -76.7905
rradius 22.3947
rwrist -4.91832
rhand -13.96 -24.1757
rfingers 7.12502
rthumb 12.1676 -53.8019
lclavicle -2.15681e-014 -1.39149e-014
lhumerus -23.0024 1.81868 82.8659
lradius 38.7892
lwrist 2.89488
lhand -15.8635 -4.93119
lfingers 7.12502
lthumb 10.3318 24.795
rfemur -33.6384 -1.4371 28.5276
rtibia 28.1229
rfoot -2.26224 -9.5564
rtoes 21.5401
lfemur 6.62068 0.0220404 -13.5807
ltibia 29.4902
lfoot -3.38683 -6.10661
ltoes -0.33779
35
root 7.56514 17.6815 13.4749 56.5883 -84.0714 -48.8293
lowerback 11.6127 -1.3994 -1.89949
upperback 4.21539 -2.1621 2.02147
thorax -1.95172 -1.1693 3.45562
lowerneck -2.09526 -8.41135 -8.7731
upperneck 5.70634 -11.1444 4.29298
head 3.04555 -5.62463 2.50747
rclavicle 1.63003e-014 8.74653e-015
rhumerus -31.3345 -14.0587 -76.3683
rradius 22.05
rwrist -4.50727
rhand -13.2766 -23.6218
rfingers 7.12502
rthumb 12.8265 -53.2077
lclavicle 1.63003e-014 8.74653e-015
lhumerus -23.2181 1.43148 82.7214
lradius 38.8086
lwrist 2.65347
lhand -15.2085 -5.12233
lfingers 7.12502
lthumb 10.9637 24.5714
rfemur -32.8406 -1.99044 28.5683
rtibia 28.0666
rfoot -2.88072 -9.40047
rtoes 22.2186
lfemur 5.5572 -0.049195 -13.2422
ltibia 31.8508
lfoot -1.6639 -6.52564
ltoes -0.264288
36
root 7.44514 17.7136 13.4771 57.324 -84.229 -49.3697
lowerback 11.6558 -1.37106 -1.85102
upperback 4.06902 -2.11575 1.85373
thorax -2.13977 -1.13647 3.25227
lowerneck -1.80916 -8.50879 -9.0096
upperneck 5.49533 -11.3025 4.58683
head 2.97225 -5.70206 2.65439
rclavicle 8.74653e-015 5.56597e-015
rhumerus -31.3123 -13.6621 -76.5621
rradius 21.8344
rwrist -4.15716
rhand -13.7008 -23.4824
rfingers 7.12502
rthumb 12.4175 -53.0935
lclavicle 8.74653e-015 5.56597e-015
lhumerus -23.4848 1.58983 82.4804
lradius 38.7266
lwrist 2.12723
lhand -14.2797 -5.81452
lfingers 7.12502
lthumb 11.8594 23.8296
rfemur -32.39 -2.41592 28.6742
rtibia 27.6477
rfoot -2.95713 -8.82461
rtoes 21.7441
lfemur 3.92953 0.0472178 -13.2255
ltibia 34.4946
lfoot 0.157759 -6.61595
ltoes 0.0108403
37
root 7.30444 17.7412 13.4546 61.8423 -83.5028 -54.0736
lowerback 11.6921 -1.39792 -1.26574
upperback 4.15811 -2.08861 2.08386
thorax -2.08118 -1.12703 3.15771
lowerneck -1.79819 -8.48502 -9.33896
upperneck 5.34726 -11.2749 4.93158
head 2.96912 -5.68543 2.83339
rclavicle -1.78906e-014 -4.37326e-015
rhumerus -31.0786 -12.7802 -76.8054
rradius 21.9035
rwrist -4.74756
rhand -13.9772 -24.3338
rfingers 7.12502
rthumb 12.1511 -53.9609
lclavicle -1.78906e-014 -4.37326e-015
lhumerus -23.6434 1.65294 82.357
lradius 38.5979
lwrist 2.21635
lhand -13.3092 -5.97288
lfingers 7.12502
lthumb 12.7951 23.615
rfemur -31.3839 -2.42013 29.7639
rtibia 27.1043
rfoot -3.14435 -8.83322
rtoes 21.1372
lfemur 2.66695 -0.0609187 -11.9535
ltibia 37.203
lfoot 2.11985 -6.94502
ltoes 2.38603
38
root 7.16042 17.7654 13.4462 59.3464 -82.8669 -52.1905
lowerback 12.1082 -1.52141 -0.796455
upperback 4.4167 -2.21652 2.13569
thorax -2.04564 -1.19838 2.97354
lowerneck -1.90982 -8.5721 -9.68994
upperneck 5.2381 -11.3886 5.35427
head 3.02202 -5.73612 3.02956
rclavicle -2.98177e-015 -1.98785e-014
rhumerus -30.8541 -12.5857 -76.8033
rradius 22.1633
rwrist -4.63111
rhand -13.4543 -25.8201
rfingers 7.12502
rthumb 12.6553 -55.4167
lclavicle -2.98177e-015 -1.98785e-014
lhumerus -23.6156 1.79474 82.2363
lradius 38.5061
lwrist 1.74098
lhand -12.018 -5.01273
lfingers 7.12502
lthumb 14.0396 24.4931
rfemur -29.8086 -3.99268 30.4946
rtibia 26.3328
rfoot -3.16313 -7.89503
rtoes 21.2993
lfemur 1.813 -0.699737 -11.2524
ltibia 39.94
lfoot 4.20906 -7.38198
ltoes 12.1567
39
root 7.03044 17.7777 13.419 66.8576 -82.1928 -59.7477
lowerback 12.079 -1.22937 -0.00143586
upperback 4.43722 -1.74161 2.34071
thorax -2.05203 -0.961675 2.67396
lowerneck -1.60219 -8.82049 -9.98943
upperneck 4.82954 -11.748 5.74116
head 2.90987 -5.91181 3.21356
rclavicle 4.57205e-015 -1.51076e-014
rhumerus -30.7864 -12.9639 -76.6518
rradius 22.423
rwrist -3.85264
rhand -12.565 -26.914
rfingers 7.12502
rthumb 13.5124 -56.4556
lclavicle 4.57205e-015 -1.51076e-014
lhumerus -23.674 1.80771 82.162
lradius 38.5686
lwrist 1.30311
lhand -11.8785 -4.42544
lfingers 7.12502
lthumb 14.1741 25.071
rfemur -28.8326 -3.49579 31.819
rtibia 25.4794
rfoot -2.92666 -7.78155
rtoes 21.4618
lfemur 0.40544 -0.287183 -9.74742
ltibia 42.6312
lfoot 6.42345 -7.70182
ltoes 10.1468
40
root 6.89826 17.7912 13.3885 73.1273 -81.2775 -66.1278
lowerback 12.0235 -0.990326 0.843814
upperback 4.49856 -1.33603 2.60754
thorax -1.98799 -0.761802 2.41824
lowerneck -1.20886 -9.12811 -10.0701
upperneck 4.19817 -12.1767 5.8124
head 2.67126 -6.12373 3.25558
rclavicle -2.22639e-014 -1.74931e-014
rhumerus -30.6648 -12.5682 -76.7044
rradius 22.751
rwrist -3.70756
rhand -11.6341 -27.508
rfingers 7.12502
rthumb 14.4096 -56.9878
lclavicle -2.22639e-014 -1.74931e-014
lhumerus -23.7948 1.81608 82.1022
lradius 38.7621
lwrist 1.03775
lhand -11.5391 -3.97662
lfingers 7.12502
lthumb 14.5011 25.4966
rfemur -27.8624 -2.6699 33.1872
rtibia 24.7958
rfoot -2.84833 -8.0296
rtoes 21.2873
lfemur -0.850416 0.23455 -8.02616
ltibia 45.1106
lfoot 8.39683 -8.11829
ltoes 8.72599
41
root 6.76483 17.813 13.3812 73.0602 -80.882 -66.1289
lowerback 11.9685 -1.03883 1.14956
upperback 4.51297 -1.36845 2.62201
thorax -1.94824 -0.776611 2.26346
lowerneck -0.894672 -9.26959 -9.95806
upperneck 3.69395 -12.3762 5.68471
head 2.44035 -6.22244 3.20576
rclavicle -8.74653e-015 8.74653e-015
rhumerus -30.6316 -11.7575 -76.8002
rradius 23.2148
rwrist -3.19263
rhand -10.1797 -28.4918
rfingers 7.12502
rthumb 15.8106 -57.8661
lclavicle -8.74653e-015 8.74653e-015
lhumerus -23.9889 2.0325 81.8708
lradius 38.7818
lwrist 0.945253
lhand -11.0727 -3.94456
lfingers 7.12502
lthumb 14.9505 25.4958
rfemur -27.0038 -2.98192 33.6864
rtibia 24.2029
rfoot -2.8184 -7.83941
rtoes 20.1796
lfemur -2.13817 0.184264 -7.36872
ltibia 47.3862
lfoot 10.1587 -8.74855
ltoes 6.93288
42
root 6.63142 17.828 13.3709 74.2897 -80.896 -67.4722
lowerback 12.0725 -0.913236 1.10867
upperback 4.40212 -1.19805 2.50438
thorax -2.12758 -0.687871 2.1454
lowerneck -0.651481 -9.38202 -9.96185
upperneck 3.60869 -12.5479 5.70269
head 2.38395 -6.31039 3.2167
rclavicle 7.15625e-015 -6.36111e-015
rhumerus -30.8169 -10.878 -77.0012
rradius 23.6246
rwrist -3.88322
rhand -9.81518 -28.5192
rfingers 7.12502
rthumb 16.1616 -57.8654
lclavicle 7.15625e-015 -6.36111e-015
lhumerus -24.3479 2.21432 81.5851
lradius 38.5953
lwrist 0.913416
lhand -11.3982 -5.24644
lfingers 7.12502
lthumb 14.6368 24.217
rfemur -26.0576 -3.00464 33.8422
rtibia 23.5748
rfoot -2.7587 -7.65599
rtoes 18.719
lfemur -3.26935 0.390465 -7.10047
ltibia 49.5611
lfoot 11.6542 -9.59193
ltoes 5.3859
43
root 6.48962 17.8416 13.3576 73.6684 -80.6885 -67.1266
lowerback 12.156 -0.836504 1.3101
upperback 4.44792 -1.07666 2.44355
thorax -2.13323 -0.627016 1.95313
lowerneck -0.728487 -9.65711 -10.0442
upperneck 3.65183 -12.9132 5.82825
head 2.46179 -6.49064 3.24725
rclavicle 5.96354e-016 8.74653e-015
rhumerus -30.73 -10.0794 -77.316
rradius 23.8345
rwrist -6.23199
rhand -11.3629 -27.1752
rfingers 7.12502
rthumb 14.6709 -56.6362
lclavicle 5.96354e-016 8.74653e-015
lhumerus -24.5053 2.11497 81.5302
lradius 38.5858
lwrist 1.15104
lhand -11.7489 -5.86435
lfingers 7.12502
lthumb 14.299 23.6233
rfemur -25.0175 -3.26492 34.0995
rtibia 23.1971
rfoot -3.05709 -7.63327
rtoes 17.8018
lfemur -4.22847 0.209285 -6.64084
ltibia 51.5373
lfoot 13.0412 -10.2215
ltoes 5.85445
